<?xml version="1.0" encoding="utf-8"?>
<!-- Generator: Adobe Illustrator 22.1.0, SVG Export Plug-In . SVG Version: 6.00 Build 0)  -->
<svg version="1.1" id="Layer_1" xmlns="http://www.w3.org/2000/svg" xmlns:xlink="http://www.w3.org/1999/xlink" x="0px" y="0px"
	 viewBox="0 0 284 32" style="enable-background:new 0 0 284 32;" xml:space="preserve">
<style type="text/css">
	.st0{fill:#259F66;}
	.st1{font-family:'Raleway-Bold';}
	.st2{font-size:25px;}
</style>
<title>BlackFull</title>
<desc>Created with Sketch.</desc>
<g id="Page-1">
	<g id="BlackFull">
		<path id="Shape" class="st0" d="M30.4,31.3c-6.2,0-11.7-4-13.7-9.8c-0.8,0-1.7-0.1-2.5-0.2c-0.6-0.1-1.3-0.1-1.9-0.3
			C8.2,20.3,4.3,18.7,1,16.3l-0.3-0.2C0.3,15.8,0,15.3,0,14.8c0-0.3,0-0.6,0.2-0.9c0.3-0.7,0.9-1.1,1.7-1.2c0.5,0,1,0.1,1.4,0.4
			l0.3,0.3c1.7,1.6,3.7,2.7,5.9,3.4l0.2,0.1c0.5,0.2,1,0.3,1.5,0.4h0l0.2,0c1.7,0.4,3.3,0.7,5,0.9c0,0,0,0,0,0
			c0.6-3.8,2.7-7.1,5.8-9.4l0.2-0.1c2-1.4,4.3-2.3,6.7-2.6C29.3,6,29.6,6,29.9,6h1.3c2.6,0,5.2-0.1,7.9-0.3l1.3-0.1
			c8.4-0.8,16.7-2.4,24.8-5h0l0.1,0.3l0,0l-0.1-0.3L67,0l-0.6,1.7c-3.8,11-11.7,20-22,25.3c-0.4,0.2-0.9,0.5-1.3,0.7
			c-2.8,1.3-5.8,2.4-8.8,3.1l-0.2,0c-0.2,0.1-0.5,0.1-0.7,0.2l-0.2,0c-0.1,0-0.2,0-0.2,0l-0.5,0.1c-0.1,0-0.2,0-0.4,0
			C31.4,31.3,30.9,31.3,30.4,31.3z M18.6,21.5c2.7,4.1,7.4,6.4,12.3,5.8l0.8-0.1c0.3,0,0.4-0.1,0.5-0.1c3-0.5,5.9-1.4,8.7-2.5
			c0.9-0.4,1.8-0.7,2.6-1.2c0.2-0.1,0.4-0.2,0.6-0.3l0,0C52.8,18.8,59.7,11.7,63.9,3c-3.3,1.2-6.7,2.3-10.1,3.2l-1.2,0.3
			c-3.4,0.9-7.1,1.7-10.9,2.3c-0.2,0-0.4,0.1-0.6,0.1c-1.2,0.2-2.4,0.3-3.6,0.5c-2.4,0.3-4.8,0.5-7.2,0.7c-0.4,0-0.7,0-1.1,0.1
			c-4.8,0.5-8.9,3.7-10.7,8.2c0,0,0,0.1,0,0.1c2.7,0.2,5.5,0.1,8.2-0.2c5-0.6,9.9-2.1,14.4-4.4c0.5-0.2,0.8-0.4,1.1-0.6
			c0.2-0.1,0.4-0.2,0.5-0.3c0.2-0.1,0.3-0.2,0.5-0.3c0.8-0.5,1.6-1,2.4-1.5c0.2-0.2,0.5-0.3,0.8-0.2c0.3,0.1,0.5,0.4,0.5,0.7
			c0,0.3-0.2,0.6-0.4,0.7c-0.4,0.3-0.8,0.6-1.2,0.9c-0.4,0.3-0.8,0.6-1.2,0.8l-0.5,0.3c-0.2,0.1-0.3,0.2-0.5,0.3
			c-0.3,0.2-0.7,0.4-1.1,0.6C35,19.5,26.9,21.6,18.6,21.5z"/>
		<text transform="matrix(1 0 0 1 69.7415 24.0186)" class="st1 st2">ARJUN KALBURGI</text>
	</g>
</g>
</svg>
