<svg xmlns="http://www.w3.org/2000/svg" viewBox="0 0 80.977 23.904"><defs><style>.cls-1{fill:#fff;}</style></defs><title>White</title><g id="Layer_2" data-name="Layer 2"><g id="Layer_1-2" data-name="Layer 1"><path class="cls-1" d="M80.661,7.083a24.94,24.94,0,0,1-5.346,1.078h0l-.259.022h0c-.576.045-1.154.072-1.734.077h-.282q-.09,0-.18.015a2.93,2.93,0,0,0-1.41.55h0A2.951,2.951,0,0,0,70.281,10.7c-.009.061-.018.122-.024.183a.087.087,0,0,1-.028,0c-.022,0-.044,0-.066-.007a9.209,9.209,0,0,1-1.164-.2l-.011,0a3.4,3.4,0,0,1-.355-.092l-.037-.011-.011,0a3.619,3.619,0,0,1-1.352-.8v0l-.018-.017h0a.263.263,0,0,0-.186-.056.26.26,0,0,0-.223.161.256.256,0,0,0-.021.124.259.259,0,0,0,.092.182l.043.029a5.809,5.809,0,0,0,2.363.976c.134.025.269.043.4.056.185.022.371.038.556.047.019,0,.039,0,.059,0a.075.075,0,0,0,.019,0,2.946,2.946,0,0,0,3.14,2.084c.039,0,.077-.012.115-.017h0l.02,0c.034-.006.069-.009.1-.016a.079.079,0,0,0,.02,0c.065-.015.131-.029.195-.045l.012,0a9.53,9.53,0,0,0,1.853-.654c.1-.045.191-.091.285-.141A9.505,9.505,0,0,0,80.7,7.141c.007-.025.016-.051.025-.076Zm-4.512,4.848c-.042.022-.082.042-.124.061-.188.093-.381.178-.575.256a9.306,9.306,0,0,1-1.892.549.853.853,0,0,1-.087.016c-.029.005-.058.011-.089.015l-.017,0-.1.013a2.941,2.941,0,0,1-2.934-1.577,9.519,9.519,0,0,0,5.237-1.3c.076-.043.151-.088.225-.136.033-.02.065-.039.1-.061s.069-.044.1-.069c.175-.115.348-.238.516-.366-.172.115-.348.224-.526.326-.033.02-.065.038-.1.056l-.117.065c-.08.044-.162.086-.244.128a9.575,9.575,0,0,1-5.141.987,2.355,2.355,0,0,1,.078-.23A2.944,2.944,0,0,1,72.881,8.8c.08-.01.16-.014.239-.018q.769-.044,1.53-.138c.255-.03.508-.064.761-.1h0c.045-.005.087-.012.132-.02q1.19-.187,2.355-.485h0l.218-.06h0a24.27,24.27,0,0,0,2.5-.812A9.466,9.466,0,0,1,76.149,11.931Z"/><path class="cls-1" d="M73.132,13.529A3.111,3.111,0,0,1,70.2,11.422c-.181-.009-.357-.024-.533-.046-.134-.013-.275-.032-.413-.057a5.932,5.932,0,0,1-2.427-1l-.055-.038a.418.418,0,0,1-.149-.295.408.408,0,0,1,.034-.2.423.423,0,0,1,.36-.257.407.407,0,0,1,.3.09l.061.057a3.448,3.448,0,0,0,1.263.736l.046.013a3.214,3.214,0,0,0,.317.084h0l.035.008a9.173,9.173,0,0,0,1.08.193V10.7A3.109,3.109,0,0,1,71.35,8.7l.045-.031a3.1,3.1,0,0,1,1.443-.548c.063-.008.126-.012.188-.016h.282c.552-.005,1.122-.03,1.7-.075L75.3,8a24.807,24.807,0,0,0,5.312-1.07h0l.019.063.008,0-.013-.064.349-.1-.126.365a9.65,9.65,0,0,1-4.716,5.423c-.094.049-.192.1-.289.143a9.662,9.662,0,0,1-1.884.665l-.05.007a1.2,1.2,0,0,1-.16.041l-.042.008a.386.386,0,0,1-.052.009l-.109.017c-.026,0-.052.009-.079.011A3.064,3.064,0,0,1,73.132,13.529Zm-1.655-.873a2.584,2.584,0,0,0,.229.153,2.786,2.786,0,0,0,1.734.383.534.534,0,0,0,.055-.008l.171-.026c.082-.018.145-.033.208-.048a9.358,9.358,0,0,0,1.835-.646c.094-.045.187-.09.279-.138a9.407,9.407,0,0,0,2.132-1.5,9.653,9.653,0,0,1-1.9,1.251c-.044.023-.087.044-.131.064-.187.092-.384.18-.582.259a9.494,9.494,0,0,1-1.924.558.852.852,0,0,1-.094.018l-.208.03A3.1,3.1,0,0,1,71.476,12.656Zm-.862-1.22a2.77,2.77,0,0,0,2.634,1.248l.167-.023c.058-.009.082-.014.1-.019a9.241,9.241,0,0,0,1.869-.541c.191-.076.381-.16.564-.251.043-.02.082-.039.12-.059l0,0a9.333,9.333,0,0,0,4.243-4.333c-.7.259-1.428.487-2.157.681L77.9,8.2c-.734.193-1.531.357-2.331.484-.045.008-.09.015-.139.02-.25.04-.505.074-.763.1-.505.063-1.023.109-1.539.139-.077,0-.154.008-.229.016a2.778,2.778,0,0,0-2.289,1.763l-.011.026a9.409,9.409,0,0,0,1.763-.05,9.308,9.308,0,0,0,3.089-.935c.1-.051.169-.088.24-.127l.114-.063c.037-.019.067-.036.1-.055q.265-.154.518-.322a.163.163,0,1,1,.187.261q-.124.095-.259.191t-.265.181l-.1.067c-.036.024-.071.045-.106.066-.071.046-.149.093-.227.138A9.633,9.633,0,0,1,70.614,11.436Zm-.164-.325c.312.009.619.005.925-.016-.336,0-.674-.007-1.006-.036l-.192-.017v0H70.16a9.54,9.54,0,0,1-1.165-.2h0l-.045-.011a3.436,3.436,0,0,1-.365-.095.36.36,0,0,1-.058-.017,3.746,3.746,0,0,1-1.4-.83L67.1,9.86a.1.1,0,0,0-.059-.011.1.1,0,0,0-.087.062.1.1,0,0,0-.009.049.1.1,0,0,0,.036.073,5.692,5.692,0,0,0,2.329.97q.2.036.391.054c.149.018.3.031.443.041l.116.005h.007l.073,0,.057,0ZM71.5,8.986a2.8,2.8,0,0,0-.714.8,3.091,3.091,0,0,1,2.079-1.142c.083-.01.167-.016.25-.019.506-.029,1.017-.075,1.517-.137.254-.03.505-.063.756-.1.049-.006.089-.012.129-.019q.531-.084,1.057-.189-.6.085-1.214.14l-.293.026c-.6.046-1.186.072-1.745.077h-.278c-.053,0-.111.008-.168.014a2.777,2.777,0,0,0-1.332.519Z"/><path class="cls-1" d="M23.9,12.889a3.283,3.283,0,0,0-.393,1.269q.035.625.387.618t1.005-.7a4.879,4.879,0,0,0,.954-1.226q.167-.4.268-.405c.055,0,.085.05.093.144a.473.473,0,0,1-.03.212l-.058.144a4.853,4.853,0,0,1-.8,1.236,2.246,2.246,0,0,1-1.454.976.8.8,0,0,1-.38-.075.877.877,0,0,1-.458-.837,2.819,2.819,0,0,1,.086-.635,4.235,4.235,0,0,0,.09-.464c0-.023-.043-.047-.119-.072q-.229-.076-.3-.01t-.513,1.157q-.453,1.081-.635,1.088a.755.755,0,0,1-.219-.055q-.162-.057-.167-.168a2.746,2.746,0,0,1,.151-.327l.32-.681q.338-.718.784-1.91s.806-.293.753-.038l-.013.159c0,.046.013.072.034.078.08-.006.052-.162.216-.2C23.5,12.169,24.168,12.288,23.9,12.889Z"/><path class="cls-1" d="M28.3,12.2a8.933,8.933,0,0,0-.651,2.15,17.162,17.162,0,0,0,1.06-1.731,1.271,1.271,0,0,1,.409-.492c.393-.249.822-.092.738.169-.119.372-.071.184-.265.789a4.334,4.334,0,0,0-.273,1.274q.016.368.1.376.275-.01.968-.692a6.11,6.11,0,0,0,1-1.222c.087-.143.172-.217.256-.224a.081.081,0,0,1,.072.082,1.95,1.95,0,0,1-.657,1.178A6.122,6.122,0,0,1,29.893,14.9l-.123.073a.9.9,0,0,1-.31.106l-.107,0q-.556-.059-.594-.765a4.455,4.455,0,0,1,.034-.725l.137-.423a6.66,6.66,0,0,1-.918,1.6,1.127,1.127,0,0,1-.728.452q-.252,0-.266-.385a8.535,8.535,0,0,1,.439-2.058C27.779,11.637,28.3,12.2,28.3,12.2Z"/><path class="cls-1" d="M32.682,11.926a1.347,1.347,0,0,1,.476-.057c.172,0,.265.078.279.222a1.938,1.938,0,0,1-.007.328c-.041.635-.006.118-.11,1.155a5.826,5.826,0,0,0-.025.778q.015.334.2.332.264-.01.935-.722a8.29,8.29,0,0,0,.962-1.176.286.286,0,0,1,.228-.124.205.205,0,0,1,.188.162q.01.263-.68.995a7.571,7.571,0,0,1-1.036.968,1.328,1.328,0,0,1-.7.25q-.666.019-.7-.859a6.641,6.641,0,0,1,.153-1.31c.112-.6.009-.594.009-.594-.439.139-.678.242-1.054,1.067q-.116.263-.369.894a3.344,3.344,0,0,1-.356.746.5.5,0,0,1-.359.15q-.226.008-.237-.128c-.006-.168-.1-.007,1.142-2.681.182-.4.849-.545.734-.272l.153-.059"/><path class="cls-1" d="M44.659,13.2a1.515,1.515,0,0,1-.249.384,1.285,1.285,0,0,1-.63.417,1.528,1.528,0,0,1-.442.04l-.171-.014c-.078-.006-.1-.007-.145-.014a.722.722,0,0,1-.147-.038.477.477,0,0,1-.217-.2.6.6,0,0,1-.08-.336,2.45,2.45,0,0,1,.353-1.068,3.818,3.818,0,0,1,.593-.82c.06-.057.121-.108.121-.108a2.178,2.178,0,0,1,.205-.15,1.2,1.2,0,0,1,1.242.091m0,0a.372.372,0,0,1,.063.073.469.469,0,0,1,.06.293,2.369,2.369,0,0,1-.045.427,1.407,1.407,0,0,0,.2,1.148.7.7,0,0,0,.506.267.59.59,0,0,0,.282-.092c.188-.1.261-.216.649-.608.368-.372.2.051.312-.124s-.09.048-.027.037c.012,0,.038-.034.046-.037.075.008.03-.047.034.019,0,.126-.415.453-.093.188a2.086,2.086,0,0,1-.906.961,1.518,1.518,0,0,1-.308.091,1.142,1.142,0,0,1-.716-.079,1.07,1.07,0,0,1-.513-.711m-.141-.877c0-.025.017-.374-.145-.446-.142-.063-.341.122-.518.286a1.68,1.68,0,0,0-.445.7.474.474,0,0,0-.016.34.409.409,0,0,0,.163.187.511.511,0,0,0,.245.013c.278-.057.425-.355.591-.692A.962.962,0,0,0,44.494,12.362Z"/><path class="cls-1" d="M63.165,13.828c-.418.231-.727-.124-.87-.593a1.59,1.59,0,0,1-.074-.466,4.829,4.829,0,0,1,.047-.977c.206-.936.29-.972.57-.983a.47.47,0,0,1,.307.07.213.213,0,0,1,.09.153c-.029.11-.013.059-.1.2a1.552,1.552,0,0,0-.3.625,2.1,2.1,0,0,0-.1.593,2.94,2.94,0,0,0,.038.6c.011.309.07.327.162.4s.512.1.225.38m.693-5.04a1.285,1.285,0,0,1-.16-.078c-.1-.056-.154-.1-.156-.126q-.005-.142.446-.686a7.6,7.6,0,0,0,.51-.651q.152-.138.438.115c.152.142.2.26.151.353a2.306,2.306,0,0,1-.512.6A1.445,1.445,0,0,1,63.859,8.789Z"/><path class="cls-1" d="M46.443,14.657a11.915,11.915,0,0,1,.312-2.852l.043-.188A18.271,18.271,0,0,1,49.26,4.831c.332-.535,1.949-3.288,2.447-3.438.477-.144.927.064.954.455a7.533,7.533,0,0,1-.919,1.575,48.381,48.381,0,0,0-2.371,4.236c-.226.44-1.47,3.333-1.8,4.186a8.829,8.829,0,0,0-.465,2.569c-.023.338-.117.862-.624.374m1.725-5.723A24.611,24.611,0,0,0,49.68,6.186c.483-.921,2.424-4.071,2.289-4.175a.18.18,0,0,0-.163,0,1.617,1.617,0,0,0-.364.382c-.141.2-.839,1.46-1.318,2.247a22.994,22.994,0,0,0-1.946,3.927C48.15,8.7,47.992,9.073,48.211,9.065Z"/><path class="cls-1" d="M49.264,9.815a39.8,39.8,0,0,1,3.067-6.38c.028-.117.131-.176.309-.179a.672.672,0,0,1,.179.027q.236.078.234.248a.272.272,0,0,1-.044.131,65.683,65.683,0,0,0-3.026,6.282A1.4,1.4,0,0,1,50.8,9.8a.706.706,0,0,1,.268.053.6.6,0,0,1,.416.557,1.856,1.856,0,0,1-.17.883A11.7,11.7,0,0,1,50.268,13.4c-.483.8-1,1.109-1.325,1.105-.267,0-.489-.323-.486-.989a5.18,5.18,0,0,1,.08-1.155c.1-.525.217-.974.351-1.487m.267,2.245c0,.138.048.212.136.221a.384.384,0,0,0,.235-.129,5.256,5.256,0,0,0,.954-1.591c.351-.792.356-.851.359-1.1a.119.119,0,0,0-.106-.121.81.81,0,0,0-.386.1c-.414.222-.594.3-.885,1.159A4.92,4.92,0,0,0,49.156,13.123Z"/><path class="cls-1" d="M22.228,9.427"/><path class="cls-1" d="M52.743,11.045a8.933,8.933,0,0,0-.651,2.15,17.162,17.162,0,0,0,1.06-1.731,1.271,1.271,0,0,1,.409-.492c.393-.249.822-.092.738.169-.119.372-.071.184-.265.789a4.334,4.334,0,0,0-.273,1.274q.016.368.1.376.275-.01.968-.692a6.11,6.11,0,0,0,1-1.222c.087-.143.172-.217.256-.224a.081.081,0,0,1,.072.082A1.95,1.95,0,0,1,55.5,12.7a6.122,6.122,0,0,1-1.165,1.044l-.123.073a.9.9,0,0,1-.31.106l-.107,0q-.556-.059-.594-.765a4.455,4.455,0,0,1,.034-.725l.137-.423a6.66,6.66,0,0,1-.918,1.6,1.127,1.127,0,0,1-.728.452q-.252,0-.266-.385a8.535,8.535,0,0,1,.439-2.058C52.223,10.481,52.743,11.045,52.743,11.045Z"/><path class="cls-1" d="M57.657,11.561a3.283,3.283,0,0,0-.393,1.269q.035.625.387.618t1.005-.7a4.879,4.879,0,0,0,.954-1.226q.167-.4.268-.405c.055,0,.085.05.093.144a.473.473,0,0,1-.03.212l-.058.144a4.853,4.853,0,0,1-.8,1.236,2.246,2.246,0,0,1-1.454.976.8.8,0,0,1-.38-.075.877.877,0,0,1-.458-.837,2.819,2.819,0,0,1,.086-.635,4.235,4.235,0,0,0,.09-.464c0-.023-.043-.047-.119-.072q-.229-.076-.3-.01T56.031,12.9q-.453,1.081-.635,1.088a.755.755,0,0,1-.219-.055q-.162-.057-.167-.168a2.746,2.746,0,0,1,.151-.327l.32-.681q.338-.718.784-1.91s.806-.293.753-.038l-.013.159c0,.046.013.072.034.078.08-.006.052-.162.216-.2C57.256,10.841,57.928,10.961,57.657,11.561Z"/><path class="cls-1" d="M26.5,12.329q-.006.086-.456,1.222L24.27,19.329a13.047,13.047,0,0,1-1.462,3.388,3.668,3.668,0,0,1-.562.6,1.875,1.875,0,0,1-1.284.579q-.27-.019-.26-.15c.007-.033.066-.058.178-.076a1.3,1.3,0,0,0,.378-.131,2.164,2.164,0,0,0,.792-.688A11.833,11.833,0,0,0,23.635,19.3c.315-1.078,1.257-4.26,1.57-5.192s.487-1.465.523-1.6a.87.87,0,0,1,.1-.262q.1-.137.5-.11A.175.175,0,0,1,26.5,12.329Z"/><path class="cls-1" d="M61.835,11.131q-.006.086-.456,1.222L59.6,18.131A13.047,13.047,0,0,1,58.14,21.52a3.668,3.668,0,0,1-.562.6,1.875,1.875,0,0,1-1.284.579q-.27-.019-.26-.15c.007-.033.066-.058.178-.076a1.3,1.3,0,0,0,.378-.131,2.164,2.164,0,0,0,.792-.688,11.833,11.833,0,0,0,1.584-3.554c.315-1.078,1.257-4.26,1.57-5.192s.487-1.465.523-1.6a.87.87,0,0,1,.1-.262q.1-.137.5-.11A.175.175,0,0,1,61.835,11.131Z"/><path class="cls-1" d="M61.014,12.827a1.446,1.446,0,0,1-.878.847,3.656,3.656,0,0,1-.52.051.654.654,0,0,1-.571-.216.6.6,0,0,1-.1-.331,3.219,3.219,0,0,1,.358-1.022c.4-.864.435-.965.837-1.227A1.123,1.123,0,0,1,61.356,11m-.364,1.875M61.356,11m-.471.94c.068-.344-.161-1.019-.632-.362-.46.639-.919,1.752-.484,1.711C60.35,13.391,60.376,12.861,60.885,11.937Z"/><path class="cls-1" d="M27.142,10.09a1.285,1.285,0,0,1-.16-.078c-.1-.056-.154-.1-.156-.126q-.005-.142.446-.686a7.6,7.6,0,0,0,.51-.651q.152-.138.438.115c.152.142.2.26.151.353a2.306,2.306,0,0,1-.512.6A1.445,1.445,0,0,1,27.142,10.09Z"/><path class="cls-1" d="M41.993,9.622l-1.326,1.526a2.713,2.713,0,0,0-.311.6c-.492,1.4-.669,1.792-.762,2.073l-.194.588c-.074.23-.142.342-.2.338a.573.573,0,0,1-.485-.391,1.6,1.6,0,0,1-.171-.531,90.228,90.228,0,0,1,2.93-9.142L42.5,1.774a.78.78,0,0,1,.375-.407,2.278,2.278,0,0,1,.923-.295.145.145,0,0,1,.109.165c0,.09-1.286,4.227-2.326,7.195L47.617,2.1A.365.365,0,0,1,47.923,2a.474.474,0,0,1,.349.213.525.525,0,0,1,.13.381q-.012.2-.977,1.185l-4.314,4.58"/><path class="cls-1" d="M41.835,9.784c-1.018,1.13-.058,2.442.214,2.833a2.731,2.731,0,0,0,1.063.907,1.66,1.66,0,0,0,.52.166c.16.02.248.055.265.108.01.079-.089.14-.3.184a2.3,2.3,0,0,1-2.045-.8,8.41,8.41,0,0,1-1.208-1.312,1.194,1.194,0,0,1,.2-1.488"/><path class="cls-1" d="M5.5,18.3l1.126-1.126,5.065-6.03L13.5,8.975,15.67,6.321,18.6,3.186l1.729-1.729.884-.844.471-.444a.605.605,0,0,1,.248-.131A.844.844,0,0,1,22.184,0a1.055,1.055,0,0,1,.268.033,1.1,1.1,0,0,1,.253.1.555.555,0,0,1,.216.491c0,.067-.01.179-.029.316a2.765,2.765,0,0,1-.106.48l-.643,1.93L21.137,6.12l-.844,2.694-.563,2.573a12.818,12.818,0,0,0-.385,2.63,16.992,16.992,0,0,0,.17,3.144,5.916,5.916,0,0,0,.075.641,1.062,1.062,0,0,1-.028.513.487.487,0,0,1-.13.247.613.613,0,0,1-.806-.158.58.58,0,0,1-.1-.344l-.415-2.754a21.237,21.237,0,0,1,.133-2.257s.074-.66.2-1.382c.161-.912.715-3.516,1.524-7l.366-1.521L14.1,9.859,11.408,13.2,7.75,18.02l-.844,1.005a1.191,1.191,0,0,1-.331.194c-.5.193-1.224.057-1.33-.3C5.169,18.665,5.427,18.379,5.5,18.3Z"/><path class="cls-1" d="M1.058,12.882c3.548-.924,9.738-.741,9.738-.741a13.349,13.349,0,0,1,2.48.254A9.251,9.251,0,0,1,16.34,13.5a6.544,6.544,0,0,1,2.152,1.9,5.971,5.971,0,0,1,.482.819l.588,1.233v.8l-.827-.069-.535-.974-.223-.375a7.815,7.815,0,0,0-2.657-2.429,9.751,9.751,0,0,0-2.085-.8,11.367,11.367,0,0,0-1.556-.3,15.907,15.907,0,0,0-1.735-.13c-.807-.027-1.659-.055-2.836,0-1.987.092-5.287.245-5.388.988-.047.348.626.7,1.23,1.021a10.542,10.542,0,0,0,3.717.846c.447.053.814.089,1.05.11l-.755.879a12.589,12.589,0,0,1-3.57-.522,8.036,8.036,0,0,1-1.911-.855c-.7-.432-1.5-.931-1.48-1.6a1.246,1.246,0,0,1,.285-.716A1.448,1.448,0,0,1,1.058,12.882Z"/><path class="cls-1" d="M7.593,16.172l-.534.92q.323.041.654.075c.822.084,1.612.128,2.367.141l7.069.134,7.619-.017,7.473-.185,13.539-.386,14.656-.688,14.041-.4,5.241-.168a1.368,1.368,0,0,0,.751-.176c.2-.12.235-.222.245-.263a.407.407,0,0,0-.083-.311c-.2-.277-.64-.2-.66-.192l-1.788.054-7.393.05-17.7.688-12.844.52-16.257.453-9.253.034L9.87,16.3Z"/></g></g></svg>