<svg xmlns="http://www.w3.org/2000/svg" id="Layer_1" data-name="Layer 1" viewBox="0 0 88.718 78.686"><title>Black</title><path fill="#000" d="M77.507,24.915a116.355,116.355,0,0,1-24.943,5.028h-.007c-.4.033-.8.072-1.207.1h-.007c-2.689.21-5.384.334-8.088.358l-.043,0c-.412,0-.825,0-1.244,0l-.029,0q-.421.023-.841.068a13.671,13.671,0,0,0-6.578,2.565h-.007A13.768,13.768,0,0,0,29.078,41.8c-.042.286-.084.571-.112.855a.408.408,0,0,1-.131-.011c-.1-.006-.2-.02-.307-.033a42.962,42.962,0,0,1-5.43-.95.183.183,0,0,1-.051-.01,15.838,15.838,0,0,1-1.655-.43l-.171-.051a.133.133,0,0,1-.051-.01,16.882,16.882,0,0,1-6.306-3.722v-.007c-.031-.026-.055-.053-.086-.08l-.008-.007-.008-.007a1.226,1.226,0,0,0-.868-.263,1.214,1.214,0,0,0-1.039.75,1.193,1.193,0,0,0-.1.579,1.207,1.207,0,0,0,.43.848c.069.045.13.091.2.136a27.1,27.1,0,0,0,11.025,4.555c.624.116,1.253.2,1.88.26.862.1,1.729.178,2.593.217.087.007.182.014.276.014a.351.351,0,0,0,.087,0A13.745,13.745,0,0,0,43.9,54.156c.18-.015.357-.058.536-.08h.014c.029,0,.064-.012.093-.015.157-.027.322-.041.479-.075a.367.367,0,0,0,.092-.022c.306-.068.611-.136.909-.211a.179.179,0,0,0,.057-.012A44.463,44.463,0,0,0,54.72,50.69c.446-.21.891-.427,1.329-.657A44.344,44.344,0,0,0,77.673,25.184c.034-.119.075-.238.116-.357C77.69,24.857,77.6,24.886,77.507,24.915ZM56.454,47.533c-.194.1-.382.2-.577.285-.877.433-1.778.831-2.681,1.194a43.417,43.417,0,0,1-8.829,2.559,3.981,3.981,0,0,1-.406.076c-.135.025-.271.051-.414.07a.27.27,0,0,1-.079.014L43,51.79a13.72,13.72,0,0,1-13.69-7.356A44.409,44.409,0,0,0,53.745,38.37c.353-.2.7-.411,1.048-.635.152-.092.3-.184.455-.283s.323-.207.488-.322c.817-.536,1.625-1.108,2.408-1.707-.8.535-1.623,1.043-2.452,1.522-.152.092-.3.177-.464.262-.18.1-.36.2-.547.3-.374.2-.756.4-1.138.6a44.254,44.254,0,0,1-14.659,4.442,44.227,44.227,0,0,1-9.327.161,10.987,10.987,0,0,1,.362-1.071,13.735,13.735,0,0,1,11.291-8.7c.373-.045.747-.068,1.115-.083q3.586-.2,7.139-.643c1.19-.14,2.37-.3,3.549-.483h.007c.208-.024.408-.055.615-.093q5.551-.872,10.987-2.264h.007l1.019-.278h.007a113.228,113.228,0,0,0,11.681-3.788A44.161,44.161,0,0,1,56.454,47.533Z"/><path d="M42.38,54.989A14.516,14.516,0,0,1,28.691,45.16c-.844-.041-1.665-.114-2.488-.214-.627-.059-1.281-.149-1.925-.267A27.674,27.674,0,0,1,12.957,40l-.255-.176a1.952,1.952,0,0,1-.695-1.374,1.9,1.9,0,0,1,.158-.923,1.975,1.975,0,0,1,1.679-1.2,1.9,1.9,0,0,1,1.383.422l.284.267a16.085,16.085,0,0,0,5.89,3.432l.217.059a14.994,14.994,0,0,0,1.477.39l.018,0,.161.038a42.8,42.8,0,0,0,5.041.9c0-.012,0-.021,0-.032a14.506,14.506,0,0,1,5.75-9.357l.208-.147a14.454,14.454,0,0,1,6.734-2.558c.293-.035.589-.056.879-.073l1.316,0c2.573-.023,5.234-.141,7.948-.349l1.342-.117A115.735,115.735,0,0,0,77.277,24.2h.006l.091.293.038-.018-.062-.3,1.629-.481-.589,1.7a45.02,45.02,0,0,1-22,25.3c-.44.229-.894.451-1.348.665a45.075,45.075,0,0,1-8.792,3.1l-.232.032a5.6,5.6,0,0,1-.747.193l-.2.038a1.8,1.8,0,0,1-.243.041l-.51.079c-.12.021-.243.041-.366.05A14.3,14.3,0,0,1,42.38,54.989Zm-7.722-4.073a12.055,12.055,0,0,0,1.067.712,13,13,0,0,0,8.088,1.785,2.492,2.492,0,0,0,.255-.038l.8-.123c.381-.085.677-.152.97-.226A43.66,43.66,0,0,0,54.4,50.013c.437-.208.873-.419,1.3-.645a43.888,43.888,0,0,0,9.946-7A45.033,45.033,0,0,1,56.8,48.2c-.205.108-.4.205-.61.3-.873.431-1.793.838-2.714,1.207a44.292,44.292,0,0,1-8.976,2.6,3.973,3.973,0,0,1-.44.082l-.97.141A14.45,14.45,0,0,1,34.658,50.916Zm-4.024-5.694a12.922,12.922,0,0,0,12.288,5.82l.78-.108c.273-.044.381-.064.489-.091a43.113,43.113,0,0,0,8.721-2.526c.891-.355,1.776-.744,2.632-1.169.2-.094.381-.182.56-.275l.015-.009A43.542,43.542,0,0,0,75.911,26.648c-3.285,1.207-6.664,2.274-10.063,3.177l-1.219.3c-3.423.9-7.142,1.667-10.875,2.257-.208.038-.422.07-.648.094-1.166.185-2.356.346-3.558.484-2.356.293-4.774.51-7.18.651-.36.015-.718.035-1.07.076a12.958,12.958,0,0,0-10.679,8.226c-.018.041-.032.082-.05.123a43.9,43.9,0,0,0,8.223-.232A43.424,43.424,0,0,0,53.2,37.444c.454-.237.788-.41,1.119-.592.188-.1.36-.2.533-.3s.314-.17.454-.255q1.235-.717,2.418-1.5a.762.762,0,1,1,.87,1.219q-.578.443-1.21.893-.613.435-1.237.845l-.478.314c-.17.111-.331.211-.5.308-.331.214-.695.434-1.061.642A44.943,44.943,0,0,1,30.634,45.222ZM29.869,43.7c1.454.041,2.887.023,4.317-.073-1.568.006-3.144-.032-4.695-.17l-.9-.079.006-.015-.082,0a44.508,44.508,0,0,1-5.433-.938l-.012,0-.208-.053a16.031,16.031,0,0,1-1.7-.443,1.678,1.678,0,0,1-.27-.079,17.478,17.478,0,0,1-6.541-3.871l-.12-.111a.451.451,0,0,0-.275-.053.47.47,0,0,0-.407.29.447.447,0,0,0-.044.229.48.48,0,0,0,.17.34A26.553,26.553,0,0,0,24.538,43.2q.919.167,1.823.252c.7.082,1.383.147,2.069.19l.542.023.032,0,.34.018c.091.006.179.009.267.012ZM34.76,33.8a13.074,13.074,0,0,0-3.329,3.734,14.42,14.42,0,0,1,9.7-5.328c.387-.047.78-.073,1.166-.088,2.359-.135,4.745-.352,7.077-.639,1.184-.138,2.356-.3,3.525-.478.229-.029.413-.056.6-.091q2.479-.391,4.932-.882-2.822.4-5.662.654L51.4,30.8c-2.8.217-5.533.337-8.141.36l-1.3,0c-.249.015-.516.035-.785.064a12.954,12.954,0,0,0-6.216,2.424Z"/></svg>