<svg xmlns="http://www.w3.org/2000/svg" viewBox="0 0 76.922 36.003"><defs><style>.cls-1{stroke:#000;stroke-miterlimit:10;stroke-width:0.1px;}</style></defs><title>Black</title><g id="Layer_2" data-name="Layer 2"><g id="Layer_1-2" data-name="Layer 1"><path class="cls-1" d="M75.154,1.472a133.4,133.4,0,0,1-28.6,5.765h-.008c-.461.037-.914.082-1.384.12h-.008c-3.083.241-6.173.383-9.273.41l-.049,0c-.472.005-.945,0-1.427,0l-.033,0q-.483.027-.964.078a15.674,15.674,0,0,0-7.542,2.941H25.86a15.785,15.785,0,0,0-6.23,10.034c-.048.327-.1.655-.128.981a.468.468,0,0,1-.15-.013c-.117-.007-.234-.023-.351-.038a49.257,49.257,0,0,1-6.226-1.089.21.21,0,0,1-.059-.012,18.159,18.159,0,0,1-1.9-.493c-.068-.019-.128-.039-.2-.059a.153.153,0,0,1-.059-.012,19.356,19.356,0,0,1-7.23-4.267v-.008c-.036-.03-.063-.061-.1-.092l-.009-.008-.009-.008a1.406,1.406,0,0,0-.995-.3,1.392,1.392,0,0,0-1.191.859,1.368,1.368,0,0,0-.112.664,1.384,1.384,0,0,0,.493.972c.079.052.149.1.228.156a31.071,31.071,0,0,0,12.64,5.223c.716.133,1.437.232,2.156.3.988.119,1.982.2,2.973.249.1.008.209.016.316.016a.4.4,0,0,0,.1,0A15.759,15.759,0,0,0,36.619,35c.206-.017.409-.066.615-.091h.016c.033,0,.074-.014.106-.017.18-.031.37-.046.549-.086a.421.421,0,0,0,.106-.025c.35-.078.7-.156,1.042-.242a.205.205,0,0,0,.065-.014,50.978,50.978,0,0,0,9.911-3.5c.511-.24,1.022-.489,1.523-.754A50.842,50.842,0,0,0,75.345,1.78c.039-.136.086-.272.133-.409C75.364,1.405,75.259,1.439,75.154,1.472ZM51.017,27.4c-.223.118-.438.226-.662.327-1,.5-2.038.953-3.074,1.369a49.779,49.779,0,0,1-10.122,2.934,4.564,4.564,0,0,1-.466.087c-.155.029-.31.058-.475.08a.31.31,0,0,1-.09.016l-.534.068a15.731,15.731,0,0,1-15.7-8.434A50.916,50.916,0,0,0,47.911,16.9c.4-.232.808-.472,1.2-.728.174-.105.348-.211.521-.324s.371-.237.559-.369c.937-.615,1.863-1.271,2.761-1.957-.921.614-1.861,1.2-2.812,1.745-.174.105-.349.2-.531.3-.206.116-.412.232-.627.349-.429.234-.867.46-1.3.686a50.738,50.738,0,0,1-16.807,5.093,50.707,50.707,0,0,1-10.693.185,12.6,12.6,0,0,1,.415-1.228,15.747,15.747,0,0,1,12.945-9.972c.427-.051.856-.078,1.278-.1q4.112-.233,8.185-.737c1.364-.16,2.718-.344,4.069-.553h.008c.238-.028.468-.063.7-.107q6.364-1,12.6-2.6h.008l1.169-.318h.008A129.819,129.819,0,0,0,74.959,1.928,50.632,50.632,0,0,1,51.017,27.4Z"/><path class="cls-1" d="M34.88,35.953A16.643,16.643,0,0,1,19.186,24.684c-.968-.047-1.908-.131-2.853-.245-.719-.067-1.468-.171-2.207-.306a31.729,31.729,0,0,1-12.98-5.369l-.292-.2a2.239,2.239,0,0,1-.8-1.576,2.182,2.182,0,0,1,.181-1.058,2.265,2.265,0,0,1,1.925-1.374,2.176,2.176,0,0,1,1.586.484l.326.306a18.442,18.442,0,0,0,6.754,3.935l.249.067a17.191,17.191,0,0,0,1.693.447l.02,0,.185.044a49.067,49.067,0,0,0,5.779,1.035c0-.013,0-.024,0-.037A16.632,16.632,0,0,1,25.351,10.1l.239-.168A16.572,16.572,0,0,1,33.311,7c.336-.04.675-.064,1.008-.084l1.509,0c2.95-.027,6-.161,9.112-.4l1.539-.134A132.693,132.693,0,0,0,74.89.653H74.9l.1.336.044-.02L74.974.626,76.843.075l-.675,1.952a51.617,51.617,0,0,1-25.223,29.01c-.5.262-1.025.517-1.546.763a51.68,51.68,0,0,1-10.08,3.558l-.265.037a6.423,6.423,0,0,1-.857.222l-.225.044a2.066,2.066,0,0,1-.279.047l-.585.091c-.138.024-.279.047-.42.057A16.391,16.391,0,0,1,34.88,35.953Zm-8.853-4.67a13.821,13.821,0,0,0,1.223.816,14.9,14.9,0,0,0,9.273,2.046,2.857,2.857,0,0,0,.292-.044l.914-.141c.437-.1.776-.175,1.112-.259a50.057,50.057,0,0,0,9.818-3.454c.5-.239,1-.48,1.492-.739a50.319,50.319,0,0,0,11.4-8.03,51.632,51.632,0,0,1-10.144,6.693c-.235.124-.464.235-.7.343-1,.494-2.056.961-3.111,1.384a50.782,50.782,0,0,1-10.292,2.984,4.555,4.555,0,0,1-.5.094l-1.112.161A16.568,16.568,0,0,1,26.027,31.283Zm-4.613-6.528A14.815,14.815,0,0,0,35.5,31.427L36.4,31.3c.312-.05.437-.074.561-.1a49.43,49.43,0,0,0,10-2.9c1.021-.407,2.036-.853,3.017-1.341.232-.108.437-.208.642-.316l.017-.01A49.922,49.922,0,0,0,73.325,3.459C69.558,4.843,65.684,6.066,61.787,7.1l-1.4.349C56.464,8.482,52.2,9.362,47.92,10.038c-.239.044-.484.081-.743.108-1.337.212-2.7.4-4.079.554-2.7.336-5.473.585-8.232.746-.413.017-.823.04-1.226.087A14.857,14.857,0,0,0,21.4,20.964c-.02.047-.037.094-.057.141a50.33,50.33,0,0,0,9.428-.265,49.786,49.786,0,0,0,16.521-5c.521-.272.9-.47,1.284-.679.215-.114.413-.225.612-.339s.36-.195.521-.292q1.416-.822,2.772-1.72a.873.873,0,1,1,1,1.4q-.663.508-1.388,1.024-.7.5-1.418.969l-.548.36c-.195.128-.38.242-.568.353-.38.245-.8.5-1.216.736A51.529,51.529,0,0,1,21.413,24.754Zm-.877-1.74c1.667.047,3.31.027,4.949-.084-1.8.007-3.605-.037-5.383-.195l-1.028-.091.007-.017-.094,0a51.03,51.03,0,0,1-6.229-1.075l-.013,0-.239-.06a18.38,18.38,0,0,1-1.952-.507,1.924,1.924,0,0,1-.309-.091,20.038,20.038,0,0,1-7.5-4.438l-.138-.128a.517.517,0,0,0-.316-.06.539.539,0,0,0-.467.333.512.512,0,0,0-.05.262.55.55,0,0,0,.195.39,30.444,30.444,0,0,0,12.455,5.188q1.053.192,2.09.289c.8.094,1.586.168,2.372.218l.622.027.037,0,.39.02c.1.007.2.01.306.013Zm5.608-11.36a14.99,14.99,0,0,0-3.817,4.281A16.532,16.532,0,0,1,33.445,9.826c.444-.054.894-.084,1.337-.1,2.7-.155,5.44-.4,8.114-.732,1.357-.158,2.7-.339,4.042-.548.262-.034.474-.064.692-.1q2.843-.449,5.655-1.011-3.236.454-6.491.749l-1.569.138c-3.205.249-6.344.386-9.334.413l-1.485,0c-.286.017-.591.04-.9.074a14.852,14.852,0,0,0-7.126,2.779Z"/></g></g></svg>