<?xml version="1.0" encoding="UTF-8"?>
<svg width="1204px" height="1205px" viewBox="0 0 1204 1205" version="1.1" xmlns="http://www.w3.org/2000/svg" xmlns:xlink="http://www.w3.org/1999/xlink">
    <!-- Generator: Sketch 42 (36781) - http://www.bohemiancoding.com/sketch -->
    <title>Artboard</title>
    <desc>Created with Sketch.</desc>
    <defs></defs>
    <g id="Page-1" stroke="none" stroke-width="1" fill="none" fill-rule="evenodd">
        <g id="Artboard" stroke="#FFFFFF" stroke-width="10">
            <polygon id="Triangle" points="602 0 1204 799 0 799"></polygon>
            <polygon id="Triangle-Copy" transform="translate(602.000000, 800.500000) scale(1, -1) translate(-602.000000, -800.500000) " points="602 401 1204 1200 0 1200"></polygon>
            <polygon id="Triangle-2" points="600 496 1000 999 200 999"></polygon>
            <polygon id="Triangle-2-Copy" transform="translate(600.000000, 451.500000) scale(1, -1) translate(-600.000000, -451.500000) " points="600 200 1000 703 200 703"></polygon>
            <polygon id="Triangle-3" points="600 799 800 1140 400 1140"></polygon>
            <polygon id="Triangle-3-Copy" transform="translate(600.000000, 229.500000) scale(1, -1) translate(-600.000000, -229.500000) " points="600 59 800 400 400 400"></polygon>
            <path d="M600,60.5 L600,1139.5" id="Line" stroke-linecap="square"></path>
        </g>
    </g>
</svg>